<?xml version="1.0" encoding="utf-8" standalone="no"?>
<!DOCTYPE svg PUBLIC "-//W3C//DTD SVG 1.1//EN"
  "http://www.w3.org/Graphics/SVG/1.1/DTD/svg11.dtd">
<svg xmlns:xlink="http://www.w3.org/1999/xlink" width="538.661562pt" height="392.88125pt" viewBox="0 0 538.661562 392.88125" xmlns="http://www.w3.org/2000/svg" version="1.1">
 <metadata>
  <rdf:RDF xmlns:dc="http://purl.org/dc/elements/1.1/" xmlns:cc="http://creativecommons.org/ns#" xmlns:rdf="http://www.w3.org/1999/02/22-rdf-syntax-ns#">
   <cc:Work>
    <dc:type rdf:resource="http://purl.org/dc/dcmitype/StillImage"/>
    <dc:date>2025-12-29T11:45:13.485674</dc:date>
    <dc:format>image/svg+xml</dc:format>
    <dc:creator>
     <cc:Agent>
      <dc:title>Matplotlib v3.9.2, https://matplotlib.org/</dc:title>
     </cc:Agent>
    </dc:creator>
   </cc:Work>
  </rdf:RDF>
 </metadata>
 <defs>
  <style type="text/css">*{stroke-linejoin: round; stroke-linecap: butt}</style>
 </defs>
 <g id="figure_1">
  <g id="patch_1">
   <path d="M 0 392.88125 
L 538.661562 392.88125 
L 538.661562 0 
L 0 0 
z
" style="fill: #ffffff"/>
  </g>
  <g id="axes_1">
   <g id="patch_2">
    <path d="M 85.061562 339.84 
L 531.461563 339.84 
L 531.461563 7.2 
L 85.061562 7.2 
z
" style="fill: #ffffff"/>
   </g>
   <g id="matplotlib.axis_1">
    <g id="xtick_1">
     <g id="line2d_1">
      <path d="M 108.722738 339.84 
L 108.722738 7.2 
" clip-path="url(#p7074de617d)" style="fill: none; stroke: #b0b0b0; stroke-width: 0.8; stroke-linecap: square"/>
     </g>
     <g id="line2d_2">
      <defs>
       <path id="m53e6027e1a" d="M 0 0 
L 0 3.5 
" style="stroke: #000000; stroke-width: 0.8"/>
      </defs>
      <g>
       <use xlink:href="#m53e6027e1a" x="108.722738" y="339.84" style="stroke: #000000; stroke-width: 0.8"/>
      </g>
     </g>
     <g id="text_1">
      <!-- −10 -->
      <g transform="translate(89.728519 360.517188) scale(0.18 -0.18)">
       <defs>
        <path id="DejaVuSans-2212" d="M 678 2272 
L 4684 2272 
L 4684 1741 
L 678 1741 
L 678 2272 
z
" transform="scale(0.015625)"/>
        <path id="DejaVuSans-31" d="M 794 531 
L 1825 531 
L 1825 4091 
L 703 3866 
L 703 4441 
L 1819 4666 
L 2450 4666 
L 2450 531 
L 3481 531 
L 3481 0 
L 794 0 
L 794 531 
z
" transform="scale(0.015625)"/>
        <path id="DejaVuSans-30" d="M 2034 4250 
Q 1547 4250 1301 3770 
Q 1056 3291 1056 2328 
Q 1056 1369 1301 889 
Q 1547 409 2034 409 
Q 2525 409 2770 889 
Q 3016 1369 3016 2328 
Q 3016 3291 2770 3770 
Q 2525 4250 2034 4250 
z
M 2034 4750 
Q 2819 4750 3233 4129 
Q 3647 3509 3647 2328 
Q 3647 1150 3233 529 
Q 2819 -91 2034 -91 
Q 1250 -91 836 529 
Q 422 1150 422 2328 
Q 422 3509 836 4129 
Q 1250 4750 2034 4750 
z
" transform="scale(0.015625)"/>
       </defs>
       <use xlink:href="#DejaVuSans-2212"/>
       <use xlink:href="#DejaVuSans-31" x="83.789062"/>
       <use xlink:href="#DejaVuSans-30" x="147.412109"/>
      </g>
     </g>
    </g>
    <g id="xtick_2">
     <g id="line2d_3">
      <path d="M 165.639339 339.84 
L 165.639339 7.2 
" clip-path="url(#p7074de617d)" style="fill: none; stroke: #b0b0b0; stroke-width: 0.8; stroke-linecap: square"/>
     </g>
     <g id="line2d_4">
      <g>
       <use xlink:href="#m53e6027e1a" x="165.639339" y="339.84" style="stroke: #000000; stroke-width: 0.8"/>
      </g>
     </g>
     <g id="text_2">
      <!-- −8 -->
      <g transform="translate(152.37137 360.517188) scale(0.18 -0.18)">
       <defs>
        <path id="DejaVuSans-38" d="M 2034 2216 
Q 1584 2216 1326 1975 
Q 1069 1734 1069 1313 
Q 1069 891 1326 650 
Q 1584 409 2034 409 
Q 2484 409 2743 651 
Q 3003 894 3003 1313 
Q 3003 1734 2745 1975 
Q 2488 2216 2034 2216 
z
M 1403 2484 
Q 997 2584 770 2862 
Q 544 3141 544 3541 
Q 544 4100 942 4425 
Q 1341 4750 2034 4750 
Q 2731 4750 3128 4425 
Q 3525 4100 3525 3541 
Q 3525 3141 3298 2862 
Q 3072 2584 2669 2484 
Q 3125 2378 3379 2068 
Q 3634 1759 3634 1313 
Q 3634 634 3220 271 
Q 2806 -91 2034 -91 
Q 1263 -91 848 271 
Q 434 634 434 1313 
Q 434 1759 690 2068 
Q 947 2378 1403 2484 
z
M 1172 3481 
Q 1172 3119 1398 2916 
Q 1625 2713 2034 2713 
Q 2441 2713 2670 2916 
Q 2900 3119 2900 3481 
Q 2900 3844 2670 4047 
Q 2441 4250 2034 4250 
Q 1625 4250 1398 4047 
Q 1172 3844 1172 3481 
z
" transform="scale(0.015625)"/>
       </defs>
       <use xlink:href="#DejaVuSans-2212"/>
       <use xlink:href="#DejaVuSans-38" x="83.789062"/>
      </g>
     </g>
    </g>
    <g id="xtick_3">
     <g id="line2d_5">
      <path d="M 222.55594 339.84 
L 222.55594 7.2 
" clip-path="url(#p7074de617d)" style="fill: none; stroke: #b0b0b0; stroke-width: 0.8; stroke-linecap: square"/>
     </g>
     <g id="line2d_6">
      <g>
       <use xlink:href="#m53e6027e1a" x="222.55594" y="339.84" style="stroke: #000000; stroke-width: 0.8"/>
      </g>
     </g>
     <g id="text_3">
      <!-- −6 -->
      <g transform="translate(209.287971 360.517188) scale(0.18 -0.18)">
       <defs>
        <path id="DejaVuSans-36" d="M 2113 2584 
Q 1688 2584 1439 2293 
Q 1191 2003 1191 1497 
Q 1191 994 1439 701 
Q 1688 409 2113 409 
Q 2538 409 2786 701 
Q 3034 994 3034 1497 
Q 3034 2003 2786 2293 
Q 2538 2584 2113 2584 
z
M 3366 4563 
L 3366 3988 
Q 3128 4100 2886 4159 
Q 2644 4219 2406 4219 
Q 1781 4219 1451 3797 
Q 1122 3375 1075 2522 
Q 1259 2794 1537 2939 
Q 1816 3084 2150 3084 
Q 2853 3084 3261 2657 
Q 3669 2231 3669 1497 
Q 3669 778 3244 343 
Q 2819 -91 2113 -91 
Q 1303 -91 875 529 
Q 447 1150 447 2328 
Q 447 3434 972 4092 
Q 1497 4750 2381 4750 
Q 2619 4750 2861 4703 
Q 3103 4656 3366 4563 
z
" transform="scale(0.015625)"/>
       </defs>
       <use xlink:href="#DejaVuSans-2212"/>
       <use xlink:href="#DejaVuSans-36" x="83.789062"/>
      </g>
     </g>
    </g>
    <g id="xtick_4">
     <g id="line2d_7">
      <path d="M 279.472541 339.84 
L 279.472541 7.2 
" clip-path="url(#p7074de617d)" style="fill: none; stroke: #b0b0b0; stroke-width: 0.8; stroke-linecap: square"/>
     </g>
     <g id="line2d_8">
      <g>
       <use xlink:href="#m53e6027e1a" x="279.472541" y="339.84" style="stroke: #000000; stroke-width: 0.8"/>
      </g>
     </g>
     <g id="text_4">
      <!-- −4 -->
      <g transform="translate(266.204573 360.517188) scale(0.18 -0.18)">
       <defs>
        <path id="DejaVuSans-34" d="M 2419 4116 
L 825 1625 
L 2419 1625 
L 2419 4116 
z
M 2253 4666 
L 3047 4666 
L 3047 1625 
L 3713 1625 
L 3713 1100 
L 3047 1100 
L 3047 0 
L 2419 0 
L 2419 1100 
L 313 1100 
L 313 1709 
L 2253 4666 
z
" transform="scale(0.015625)"/>
       </defs>
       <use xlink:href="#DejaVuSans-2212"/>
       <use xlink:href="#DejaVuSans-34" x="83.789062"/>
      </g>
     </g>
    </g>
    <g id="xtick_5">
     <g id="line2d_9">
      <path d="M 336.389142 339.84 
L 336.389142 7.2 
" clip-path="url(#p7074de617d)" style="fill: none; stroke: #b0b0b0; stroke-width: 0.8; stroke-linecap: square"/>
     </g>
     <g id="line2d_10">
      <g>
       <use xlink:href="#m53e6027e1a" x="336.389142" y="339.84" style="stroke: #000000; stroke-width: 0.8"/>
      </g>
     </g>
     <g id="text_5">
      <!-- −2 -->
      <g transform="translate(323.121174 360.517188) scale(0.18 -0.18)">
       <defs>
        <path id="DejaVuSans-32" d="M 1228 531 
L 3431 531 
L 3431 0 
L 469 0 
L 469 531 
Q 828 903 1448 1529 
Q 2069 2156 2228 2338 
Q 2531 2678 2651 2914 
Q 2772 3150 2772 3378 
Q 2772 3750 2511 3984 
Q 2250 4219 1831 4219 
Q 1534 4219 1204 4116 
Q 875 4013 500 3803 
L 500 4441 
Q 881 4594 1212 4672 
Q 1544 4750 1819 4750 
Q 2544 4750 2975 4387 
Q 3406 4025 3406 3419 
Q 3406 3131 3298 2873 
Q 3191 2616 2906 2266 
Q 2828 2175 2409 1742 
Q 1991 1309 1228 531 
z
" transform="scale(0.015625)"/>
       </defs>
       <use xlink:href="#DejaVuSans-2212"/>
       <use xlink:href="#DejaVuSans-32" x="83.789062"/>
      </g>
     </g>
    </g>
    <g id="xtick_6">
     <g id="line2d_11">
      <path d="M 393.305744 339.84 
L 393.305744 7.2 
" clip-path="url(#p7074de617d)" style="fill: none; stroke: #b0b0b0; stroke-width: 0.8; stroke-linecap: square"/>
     </g>
     <g id="line2d_12">
      <g>
       <use xlink:href="#m53e6027e1a" x="393.305744" y="339.84" style="stroke: #000000; stroke-width: 0.8"/>
      </g>
     </g>
     <g id="text_6">
      <!-- 0 -->
      <g transform="translate(387.579494 360.517188) scale(0.18 -0.18)">
       <use xlink:href="#DejaVuSans-30"/>
      </g>
     </g>
    </g>
    <g id="xtick_7">
     <g id="line2d_13">
      <path d="M 450.222345 339.84 
L 450.222345 7.2 
" clip-path="url(#p7074de617d)" style="fill: none; stroke: #b0b0b0; stroke-width: 0.8; stroke-linecap: square"/>
     </g>
     <g id="line2d_14">
      <g>
       <use xlink:href="#m53e6027e1a" x="450.222345" y="339.84" style="stroke: #000000; stroke-width: 0.8"/>
      </g>
     </g>
     <g id="text_7">
      <!-- 2 -->
      <g transform="translate(444.496095 360.517188) scale(0.18 -0.18)">
       <use xlink:href="#DejaVuSans-32"/>
      </g>
     </g>
    </g>
    <g id="xtick_8">
     <g id="line2d_15">
      <path d="M 507.138946 339.84 
L 507.138946 7.2 
" clip-path="url(#p7074de617d)" style="fill: none; stroke: #b0b0b0; stroke-width: 0.8; stroke-linecap: square"/>
     </g>
     <g id="line2d_16">
      <g>
       <use xlink:href="#m53e6027e1a" x="507.138946" y="339.84" style="stroke: #000000; stroke-width: 0.8"/>
      </g>
     </g>
     <g id="text_8">
      <!-- 4 -->
      <g transform="translate(501.412696 360.517188) scale(0.18 -0.18)">
       <use xlink:href="#DejaVuSans-34"/>
      </g>
     </g>
    </g>
    <g id="text_9">
     <!-- Displacement (mm) -->
     <g transform="translate(218.974531 381.937813) scale(0.18 -0.18)">
      <defs>
       <path id="DejaVuSans-44" d="M 1259 4147 
L 1259 519 
L 2022 519 
Q 2988 519 3436 956 
Q 3884 1394 3884 2338 
Q 3884 3275 3436 3711 
Q 2988 4147 2022 4147 
L 1259 4147 
z
M 628 4666 
L 1925 4666 
Q 3281 4666 3915 4102 
Q 4550 3538 4550 2338 
Q 4550 1131 3912 565 
Q 3275 0 1925 0 
L 628 0 
L 628 4666 
z
" transform="scale(0.015625)"/>
       <path id="DejaVuSans-69" d="M 603 3500 
L 1178 3500 
L 1178 0 
L 603 0 
L 603 3500 
z
M 603 4863 
L 1178 4863 
L 1178 4134 
L 603 4134 
L 603 4863 
z
" transform="scale(0.015625)"/>
       <path id="DejaVuSans-73" d="M 2834 3397 
L 2834 2853 
Q 2591 2978 2328 3040 
Q 2066 3103 1784 3103 
Q 1356 3103 1142 2972 
Q 928 2841 928 2578 
Q 928 2378 1081 2264 
Q 1234 2150 1697 2047 
L 1894 2003 
Q 2506 1872 2764 1633 
Q 3022 1394 3022 966 
Q 3022 478 2636 193 
Q 2250 -91 1575 -91 
Q 1294 -91 989 -36 
Q 684 19 347 128 
L 347 722 
Q 666 556 975 473 
Q 1284 391 1588 391 
Q 1994 391 2212 530 
Q 2431 669 2431 922 
Q 2431 1156 2273 1281 
Q 2116 1406 1581 1522 
L 1381 1569 
Q 847 1681 609 1914 
Q 372 2147 372 2553 
Q 372 3047 722 3315 
Q 1072 3584 1716 3584 
Q 2034 3584 2315 3537 
Q 2597 3491 2834 3397 
z
" transform="scale(0.015625)"/>
       <path id="DejaVuSans-70" d="M 1159 525 
L 1159 -1331 
L 581 -1331 
L 581 3500 
L 1159 3500 
L 1159 2969 
Q 1341 3281 1617 3432 
Q 1894 3584 2278 3584 
Q 2916 3584 3314 3078 
Q 3713 2572 3713 1747 
Q 3713 922 3314 415 
Q 2916 -91 2278 -91 
Q 1894 -91 1617 61 
Q 1341 213 1159 525 
z
M 3116 1747 
Q 3116 2381 2855 2742 
Q 2594 3103 2138 3103 
Q 1681 3103 1420 2742 
Q 1159 2381 1159 1747 
Q 1159 1113 1420 752 
Q 1681 391 2138 391 
Q 2594 391 2855 752 
Q 3116 1113 3116 1747 
z
" transform="scale(0.015625)"/>
       <path id="DejaVuSans-6c" d="M 603 4863 
L 1178 4863 
L 1178 0 
L 603 0 
L 603 4863 
z
" transform="scale(0.015625)"/>
       <path id="DejaVuSans-61" d="M 2194 1759 
Q 1497 1759 1228 1600 
Q 959 1441 959 1056 
Q 959 750 1161 570 
Q 1363 391 1709 391 
Q 2188 391 2477 730 
Q 2766 1069 2766 1631 
L 2766 1759 
L 2194 1759 
z
M 3341 1997 
L 3341 0 
L 2766 0 
L 2766 531 
Q 2569 213 2275 61 
Q 1981 -91 1556 -91 
Q 1019 -91 701 211 
Q 384 513 384 1019 
Q 384 1609 779 1909 
Q 1175 2209 1959 2209 
L 2766 2209 
L 2766 2266 
Q 2766 2663 2505 2880 
Q 2244 3097 1772 3097 
Q 1472 3097 1187 3025 
Q 903 2953 641 2809 
L 641 3341 
Q 956 3463 1253 3523 
Q 1550 3584 1831 3584 
Q 2591 3584 2966 3190 
Q 3341 2797 3341 1997 
z
" transform="scale(0.015625)"/>
       <path id="DejaVuSans-63" d="M 3122 3366 
L 3122 2828 
Q 2878 2963 2633 3030 
Q 2388 3097 2138 3097 
Q 1578 3097 1268 2742 
Q 959 2388 959 1747 
Q 959 1106 1268 751 
Q 1578 397 2138 397 
Q 2388 397 2633 464 
Q 2878 531 3122 666 
L 3122 134 
Q 2881 22 2623 -34 
Q 2366 -91 2075 -91 
Q 1284 -91 818 406 
Q 353 903 353 1747 
Q 353 2603 823 3093 
Q 1294 3584 2113 3584 
Q 2378 3584 2631 3529 
Q 2884 3475 3122 3366 
z
" transform="scale(0.015625)"/>
       <path id="DejaVuSans-65" d="M 3597 1894 
L 3597 1613 
L 953 1613 
Q 991 1019 1311 708 
Q 1631 397 2203 397 
Q 2534 397 2845 478 
Q 3156 559 3463 722 
L 3463 178 
Q 3153 47 2828 -22 
Q 2503 -91 2169 -91 
Q 1331 -91 842 396 
Q 353 884 353 1716 
Q 353 2575 817 3079 
Q 1281 3584 2069 3584 
Q 2775 3584 3186 3129 
Q 3597 2675 3597 1894 
z
M 3022 2063 
Q 3016 2534 2758 2815 
Q 2500 3097 2075 3097 
Q 1594 3097 1305 2825 
Q 1016 2553 972 2059 
L 3022 2063 
z
" transform="scale(0.015625)"/>
       <path id="DejaVuSans-6d" d="M 3328 2828 
Q 3544 3216 3844 3400 
Q 4144 3584 4550 3584 
Q 5097 3584 5394 3201 
Q 5691 2819 5691 2113 
L 5691 0 
L 5113 0 
L 5113 2094 
Q 5113 2597 4934 2840 
Q 4756 3084 4391 3084 
Q 3944 3084 3684 2787 
Q 3425 2491 3425 1978 
L 3425 0 
L 2847 0 
L 2847 2094 
Q 2847 2600 2669 2842 
Q 2491 3084 2119 3084 
Q 1678 3084 1418 2786 
Q 1159 2488 1159 1978 
L 1159 0 
L 581 0 
L 581 3500 
L 1159 3500 
L 1159 2956 
Q 1356 3278 1631 3431 
Q 1906 3584 2284 3584 
Q 2666 3584 2933 3390 
Q 3200 3197 3328 2828 
z
" transform="scale(0.015625)"/>
       <path id="DejaVuSans-6e" d="M 3513 2113 
L 3513 0 
L 2938 0 
L 2938 2094 
Q 2938 2591 2744 2837 
Q 2550 3084 2163 3084 
Q 1697 3084 1428 2787 
Q 1159 2491 1159 1978 
L 1159 0 
L 581 0 
L 581 3500 
L 1159 3500 
L 1159 2956 
Q 1366 3272 1645 3428 
Q 1925 3584 2291 3584 
Q 2894 3584 3203 3211 
Q 3513 2838 3513 2113 
z
" transform="scale(0.015625)"/>
       <path id="DejaVuSans-74" d="M 1172 4494 
L 1172 3500 
L 2356 3500 
L 2356 3053 
L 1172 3053 
L 1172 1153 
Q 1172 725 1289 603 
Q 1406 481 1766 481 
L 2356 481 
L 2356 0 
L 1766 0 
Q 1100 0 847 248 
Q 594 497 594 1153 
L 594 3053 
L 172 3053 
L 172 3500 
L 594 3500 
L 594 4494 
L 1172 4494 
z
" transform="scale(0.015625)"/>
       <path id="DejaVuSans-20" transform="scale(0.015625)"/>
       <path id="DejaVuSans-28" d="M 1984 4856 
Q 1566 4138 1362 3434 
Q 1159 2731 1159 2009 
Q 1159 1288 1364 580 
Q 1569 -128 1984 -844 
L 1484 -844 
Q 1016 -109 783 600 
Q 550 1309 550 2009 
Q 550 2706 781 3412 
Q 1013 4119 1484 4856 
L 1984 4856 
z
" transform="scale(0.015625)"/>
       <path id="DejaVuSans-29" d="M 513 4856 
L 1013 4856 
Q 1481 4119 1714 3412 
Q 1947 2706 1947 2009 
Q 1947 1309 1714 600 
Q 1481 -109 1013 -844 
L 513 -844 
Q 928 -128 1133 580 
Q 1338 1288 1338 2009 
Q 1338 2731 1133 3434 
Q 928 4138 513 4856 
z
" transform="scale(0.015625)"/>
      </defs>
      <use xlink:href="#DejaVuSans-44"/>
      <use xlink:href="#DejaVuSans-69" x="77.001953"/>
      <use xlink:href="#DejaVuSans-73" x="104.785156"/>
      <use xlink:href="#DejaVuSans-70" x="156.884766"/>
      <use xlink:href="#DejaVuSans-6c" x="220.361328"/>
      <use xlink:href="#DejaVuSans-61" x="248.144531"/>
      <use xlink:href="#DejaVuSans-63" x="309.423828"/>
      <use xlink:href="#DejaVuSans-65" x="364.404297"/>
      <use xlink:href="#DejaVuSans-6d" x="425.927734"/>
      <use xlink:href="#DejaVuSans-65" x="523.339844"/>
      <use xlink:href="#DejaVuSans-6e" x="584.863281"/>
      <use xlink:href="#DejaVuSans-74" x="648.242188"/>
      <use xlink:href="#DejaVuSans-20" x="687.451172"/>
      <use xlink:href="#DejaVuSans-28" x="719.238281"/>
      <use xlink:href="#DejaVuSans-6d" x="758.251953"/>
      <use xlink:href="#DejaVuSans-6d" x="855.664062"/>
      <use xlink:href="#DejaVuSans-29" x="953.076172"/>
     </g>
    </g>
   </g>
   <g id="matplotlib.axis_2">
    <g id="ytick_1">
     <g id="line2d_17">
      <path d="M 85.061562 333.349745 
L 531.461563 333.349745 
" clip-path="url(#p7074de617d)" style="fill: none; stroke: #b0b0b0; stroke-width: 0.8; stroke-linecap: square"/>
     </g>
     <g id="line2d_18">
      <defs>
       <path id="m25e19e0414" d="M 0 0 
L -3.5 0 
" style="stroke: #000000; stroke-width: 0.8"/>
      </defs>
      <g>
       <use xlink:href="#m25e19e0414" x="85.061562" y="333.349745" style="stroke: #000000; stroke-width: 0.8"/>
      </g>
     </g>
     <g id="text_10">
      <!-- −800 -->
      <g transform="translate(28.620625 340.188339) scale(0.18 -0.18)">
       <use xlink:href="#DejaVuSans-2212"/>
       <use xlink:href="#DejaVuSans-38" x="83.789062"/>
       <use xlink:href="#DejaVuSans-30" x="147.412109"/>
       <use xlink:href="#DejaVuSans-30" x="211.035156"/>
      </g>
     </g>
    </g>
    <g id="ytick_2">
     <g id="line2d_19">
      <path d="M 85.061562 291.342164 
L 531.461563 291.342164 
" clip-path="url(#p7074de617d)" style="fill: none; stroke: #b0b0b0; stroke-width: 0.8; stroke-linecap: square"/>
     </g>
     <g id="line2d_20">
      <g>
       <use xlink:href="#m25e19e0414" x="85.061562" y="291.342164" style="stroke: #000000; stroke-width: 0.8"/>
      </g>
     </g>
     <g id="text_11">
      <!-- −600 -->
      <g transform="translate(28.620625 298.180758) scale(0.18 -0.18)">
       <use xlink:href="#DejaVuSans-2212"/>
       <use xlink:href="#DejaVuSans-36" x="83.789062"/>
       <use xlink:href="#DejaVuSans-30" x="147.412109"/>
       <use xlink:href="#DejaVuSans-30" x="211.035156"/>
      </g>
     </g>
    </g>
    <g id="ytick_3">
     <g id="line2d_21">
      <path d="M 85.061562 249.334582 
L 531.461563 249.334582 
" clip-path="url(#p7074de617d)" style="fill: none; stroke: #b0b0b0; stroke-width: 0.8; stroke-linecap: square"/>
     </g>
     <g id="line2d_22">
      <g>
       <use xlink:href="#m25e19e0414" x="85.061562" y="249.334582" style="stroke: #000000; stroke-width: 0.8"/>
      </g>
     </g>
     <g id="text_12">
      <!-- −400 -->
      <g transform="translate(28.620625 256.173176) scale(0.18 -0.18)">
       <use xlink:href="#DejaVuSans-2212"/>
       <use xlink:href="#DejaVuSans-34" x="83.789062"/>
       <use xlink:href="#DejaVuSans-30" x="147.412109"/>
       <use xlink:href="#DejaVuSans-30" x="211.035156"/>
      </g>
     </g>
    </g>
    <g id="ytick_4">
     <g id="line2d_23">
      <path d="M 85.061562 207.327001 
L 531.461563 207.327001 
" clip-path="url(#p7074de617d)" style="fill: none; stroke: #b0b0b0; stroke-width: 0.8; stroke-linecap: square"/>
     </g>
     <g id="line2d_24">
      <g>
       <use xlink:href="#m25e19e0414" x="85.061562" y="207.327001" style="stroke: #000000; stroke-width: 0.8"/>
      </g>
     </g>
     <g id="text_13">
      <!-- −200 -->
      <g transform="translate(28.620625 214.165595) scale(0.18 -0.18)">
       <use xlink:href="#DejaVuSans-2212"/>
       <use xlink:href="#DejaVuSans-32" x="83.789062"/>
       <use xlink:href="#DejaVuSans-30" x="147.412109"/>
       <use xlink:href="#DejaVuSans-30" x="211.035156"/>
      </g>
     </g>
    </g>
    <g id="ytick_5">
     <g id="line2d_25">
      <path d="M 85.061562 165.31942 
L 531.461563 165.31942 
" clip-path="url(#p7074de617d)" style="fill: none; stroke: #b0b0b0; stroke-width: 0.8; stroke-linecap: square"/>
     </g>
     <g id="line2d_26">
      <g>
       <use xlink:href="#m25e19e0414" x="85.061562" y="165.31942" style="stroke: #000000; stroke-width: 0.8"/>
      </g>
     </g>
     <g id="text_14">
      <!-- 0 -->
      <g transform="translate(66.609062 172.158013) scale(0.18 -0.18)">
       <use xlink:href="#DejaVuSans-30"/>
      </g>
     </g>
    </g>
    <g id="ytick_6">
     <g id="line2d_27">
      <path d="M 85.061562 123.311838 
L 531.461563 123.311838 
" clip-path="url(#p7074de617d)" style="fill: none; stroke: #b0b0b0; stroke-width: 0.8; stroke-linecap: square"/>
     </g>
     <g id="line2d_28">
      <g>
       <use xlink:href="#m25e19e0414" x="85.061562" y="123.311838" style="stroke: #000000; stroke-width: 0.8"/>
      </g>
     </g>
     <g id="text_15">
      <!-- 200 -->
      <g transform="translate(43.704062 130.150432) scale(0.18 -0.18)">
       <use xlink:href="#DejaVuSans-32"/>
       <use xlink:href="#DejaVuSans-30" x="63.623047"/>
       <use xlink:href="#DejaVuSans-30" x="127.246094"/>
      </g>
     </g>
    </g>
    <g id="ytick_7">
     <g id="line2d_29">
      <path d="M 85.061562 81.304257 
L 531.461563 81.304257 
" clip-path="url(#p7074de617d)" style="fill: none; stroke: #b0b0b0; stroke-width: 0.8; stroke-linecap: square"/>
     </g>
     <g id="line2d_30">
      <g>
       <use xlink:href="#m25e19e0414" x="85.061562" y="81.304257" style="stroke: #000000; stroke-width: 0.8"/>
      </g>
     </g>
     <g id="text_16">
      <!-- 400 -->
      <g transform="translate(43.704062 88.142851) scale(0.18 -0.18)">
       <use xlink:href="#DejaVuSans-34"/>
       <use xlink:href="#DejaVuSans-30" x="63.623047"/>
       <use xlink:href="#DejaVuSans-30" x="127.246094"/>
      </g>
     </g>
    </g>
    <g id="ytick_8">
     <g id="line2d_31">
      <path d="M 85.061562 39.296675 
L 531.461563 39.296675 
" clip-path="url(#p7074de617d)" style="fill: none; stroke: #b0b0b0; stroke-width: 0.8; stroke-linecap: square"/>
     </g>
     <g id="line2d_32">
      <g>
       <use xlink:href="#m25e19e0414" x="85.061562" y="39.296675" style="stroke: #000000; stroke-width: 0.8"/>
      </g>
     </g>
     <g id="text_17">
      <!-- 600 -->
      <g transform="translate(43.704062 46.135269) scale(0.18 -0.18)">
       <use xlink:href="#DejaVuSans-36"/>
       <use xlink:href="#DejaVuSans-30" x="63.623047"/>
       <use xlink:href="#DejaVuSans-30" x="127.246094"/>
      </g>
     </g>
    </g>
    <g id="text_18">
     <!-- Force (kN) -->
     <g transform="translate(20.877187 219.688594) rotate(-90) scale(0.18 -0.18)">
      <defs>
       <path id="DejaVuSans-46" d="M 628 4666 
L 3309 4666 
L 3309 4134 
L 1259 4134 
L 1259 2759 
L 3109 2759 
L 3109 2228 
L 1259 2228 
L 1259 0 
L 628 0 
L 628 4666 
z
" transform="scale(0.015625)"/>
       <path id="DejaVuSans-6f" d="M 1959 3097 
Q 1497 3097 1228 2736 
Q 959 2375 959 1747 
Q 959 1119 1226 758 
Q 1494 397 1959 397 
Q 2419 397 2687 759 
Q 2956 1122 2956 1747 
Q 2956 2369 2687 2733 
Q 2419 3097 1959 3097 
z
M 1959 3584 
Q 2709 3584 3137 3096 
Q 3566 2609 3566 1747 
Q 3566 888 3137 398 
Q 2709 -91 1959 -91 
Q 1206 -91 779 398 
Q 353 888 353 1747 
Q 353 2609 779 3096 
Q 1206 3584 1959 3584 
z
" transform="scale(0.015625)"/>
       <path id="DejaVuSans-72" d="M 2631 2963 
Q 2534 3019 2420 3045 
Q 2306 3072 2169 3072 
Q 1681 3072 1420 2755 
Q 1159 2438 1159 1844 
L 1159 0 
L 581 0 
L 581 3500 
L 1159 3500 
L 1159 2956 
Q 1341 3275 1631 3429 
Q 1922 3584 2338 3584 
Q 2397 3584 2469 3576 
Q 2541 3569 2628 3553 
L 2631 2963 
z
" transform="scale(0.015625)"/>
       <path id="DejaVuSans-6b" d="M 581 4863 
L 1159 4863 
L 1159 1991 
L 2875 3500 
L 3609 3500 
L 1753 1863 
L 3688 0 
L 2938 0 
L 1159 1709 
L 1159 0 
L 581 0 
L 581 4863 
z
" transform="scale(0.015625)"/>
       <path id="DejaVuSans-4e" d="M 628 4666 
L 1478 4666 
L 3547 763 
L 3547 4666 
L 4159 4666 
L 4159 0 
L 3309 0 
L 1241 3903 
L 1241 0 
L 628 0 
L 628 4666 
z
" transform="scale(0.015625)"/>
      </defs>
      <use xlink:href="#DejaVuSans-46"/>
      <use xlink:href="#DejaVuSans-6f" x="53.894531"/>
      <use xlink:href="#DejaVuSans-72" x="115.076172"/>
      <use xlink:href="#DejaVuSans-63" x="153.939453"/>
      <use xlink:href="#DejaVuSans-65" x="208.919922"/>
      <use xlink:href="#DejaVuSans-20" x="270.443359"/>
      <use xlink:href="#DejaVuSans-28" x="302.230469"/>
      <use xlink:href="#DejaVuSans-6b" x="341.244141"/>
      <use xlink:href="#DejaVuSans-4e" x="399.154297"/>
      <use xlink:href="#DejaVuSans-29" x="473.958984"/>
     </g>
    </g>
   </g>
   <g id="line2d_33">
    <path d="M 392.865924 166.228694 
L 392.835092 166.272731 
L 392.860388 166.054291 
L 392.939084 165.825457 
L 392.993625 165.836975 
L 392.970449 166.204655 
L 392.758262 167.919929 
L 392.767907 168.107258 
L 392.750792 166.59639 
L 392.868708 165.789057 
L 392.867914 166.528793 
L 392.744042 168.040297 
L 392.745484 167.381574 
L 392.696216 167.383799 
L 392.630326 168.003933 
L 392.409484 169.480412 
L 391.207422 173.36029 
L 389.886722 177.264623 
L 388.055554 182.575829 
L 387.576361 184.176144 
L 386.994825 186.185884 
L 385.770511 188.409098 
L 385.766976 188.091558 
L 385.999202 187.445831 
L 385.944249 188.137691 
L 386.217648 186.105979 
L 387.138457 182.238442 
L 389.406777 174.540213 
L 394.7122 157.765166 
L 395.59661 155.004533 
L 396.538822 151.894015 
L 397.372636 148.901297 
L 398.066995 147.350993 
L 398.057713 147.963241 
L 397.760373 149.601792 
L 396.905864 153.725406 
L 396.779028 153.9374 
L 396.725599 153.198976 
L 396.871889 151.264082 
L 396.92673 151.351003 
L 396.961955 152.455927 
L 397.031588 151.735118 
L 397.297847 149.993335 
L 397.426286 149.601714 
L 397.417995 150.036734 
L 396.905408 152.882918 
L 395.204952 159.479112 
L 391.508575 171.880226 
L 387.0385 185.299106 
L 386.618703 186.390527 
L 386.530243 186.339322 
L 386.50856 186.115297 
L 386.414158 186.189586 
L 385.538826 189.528287 
L 385.510161 189.25062 
L 386.138638 185.783203 
L 387.111555 182.205138 
L 391.229889 168.394178 
L 393.921701 159.973074 
L 400.244426 140.999194 
L 402.179845 134.636575 
L 402.798888 132.449244 
L 403.133528 131.815931 
L 403.124553 132.216316 
L 401.866606 138.291964 
L 400.970927 141.835454 
L 401.267659 139.933536 
L 401.901482 136.965966 
L 404.269552 128.65887 
L 406.332084 122.386192 
L 407.202794 120.155507 
L 406.522786 123.25072 
L 404.879664 129.537544 
L 402.065748 139.293524 
L 399.621863 146.929618 
L 383.2978 196.26209 
L 378.019379 211.763408 
L 377.462161 212.983529 
L 377.98437 210.213711 
L 378.864208 206.438702 
L 379.380462 205.099101 
L 379.291061 205.98767 
L 379.02601 207.462383 
L 377.919178 211.778926 
L 376.825867 215.43077 
L 376.498641 216.240632 
L 376.371292 216.145324 
L 376.523811 215.1208 
L 377.715518 210.079589 
L 378.598822 206.797035 
L 380.741514 200.028934 
L 392.4267 163.912819 
L 402.108442 134.899793 
L 405.782623 124.124421 
L 413.870826 99.880849 
L 414.545143 98.527013 
L 414.578663 98.804283 
L 414.231722 100.965204 
L 414.13245 101.055832 
L 414.172678 100.50413 
L 414.392966 99.352332 
L 415.441184 95.889431 
L 417.457263 90.596966 
L 417.777694 89.835431 
L 417.912427 89.822362 
L 417.837284 90.561962 
L 417.525622 92.140381 
L 416.299195 96.558317 
L 413.888053 103.778563 
L 411.857542 109.384879 
L 410.814684 112.700136 
L 408.952955 118.984812 
L 404.745171 131.207848 
L 399.51341 147.274134 
L 397.194226 154.158154 
L 392.478993 169.069538 
L 384.870413 191.458539 
L 374.924045 220.479189 
L 370.772225 232.648075 
L 367.780452 241.53972 
L 362.641345 256.082025 
L 362.410971 256.600857 
L 362.218355 257.297159 
L 362.165541 256.725266 
L 362.578584 254.832675 
L 363.742101 250.522808 
L 367.921624 237.551602 
L 381.669948 196.52841 
L 391.56925 165.827462 
L 398.473341 145.15306 
L 410.537056 109.64874 
L 415.08445 96.845254 
L 419.179276 85.502239 
L 422.26575 77.21644 
L 424.980271 70.275491 
L 425.795341 68.258113 
L 425.861064 68.351915 
L 425.901116 68.67817 
L 425.437182 71.061319 
L 424.467577 74.642226 
L 417.87768 93.61189 
L 409.862496 117.444382 
L 399.450708 149.407479 
L 382.331884 200.847843 
L 368.992782 238.909426 
L 366.108379 247.541524 
L 363.167232 255.992037 
L 356.945372 272.644675 
L 353.2661 279.461446 
L 348.982928 284.908048 
L 344.253309 288.673013 
L 339.067896 291.734344 
L 333.844046 293.325576 
L 328.459534 294.833147 
L 318.356009 298.607573 
L 313.758006 299.248942 
L 309.191493 300.789408 
L 305.2677 300.920259 
L 302.124059 300.656199 
L 299.976197 299.405061 
L 298.913037 297.390497 
L 299.319057 293.278848 
L 300.927371 287.229926 
L 304.230445 277.47265 
L 308.311792 266.180305 
L 319.930832 233.319827 
L 332.236839 199.080417 
L 342.208969 171.038767 
L 348.718377 153.374246 
L 353.313649 142.016255 
L 360.066089 126.807215 
L 361.809465 122.995467 
L 368.114621 110.977989 
L 370.102457 107.274917 
L 373.910266 100.893791 
L 377.049169 95.784431 
L 379.867376 92.186224 
L 382.724602 88.848539 
L 382.883986 89.426752 
L 382.383327 91.555412 
L 380.842647 96.440812 
L 375.668068 111.817814 
L 372.558902 120.465068 
L 366.045679 139.363124 
L 365.901236 139.345771 
L 367.105283 134.871913 
L 369.852006 125.593295 
L 373.498375 114.356723 
L 378.358506 101.058768 
L 383.99638 88.770974 
L 390.134057 78.709127 
L 396.684991 70.011014 
L 403.216293 63.789891 
L 409.663448 58.41299 
L 415.844716 53.596662 
L 421.415576 49.46772 
L 426.690739 45.935791 
L 431.664878 42.865166 
L 440.165205 37.974529 
L 445.204575 35.690418 
L 446.137728 36.123724 
L 445.848073 38.165555 
L 444.709037 41.959365 
L 439.62548 55.222084 
L 431.722811 75.652399 
L 430.110949 79.582687 
L 432.203345 72.742007 
L 437.228042 58.003946 
L 440.611444 49.58052 
L 444.013874 42.433206 
L 447.747035 37.621103 
L 451.210755 34.727671 
L 454.555706 33.028664 
L 461.561362 31.331849 
L 465.675812 29.934015 
L 470.499592 27.989947 
L 475.794488 26.588523 
L 482.23813 25.858159 
L 488.784306 24.820302 
L 495.181186 23.971638 
L 505.873559 22.969689 
L 509.37289 22.32 
L 511.170653 22.617481 
L 510.918496 25.302464 
L 509.026475 30.570385 
L 504.928919 40.535417 
L 499.006996 55.257915 
L 482.936203 96.494142 
L 474.054044 119.588704 
L 464.970974 142.723459 
L 455.652153 164.269433 
L 446.631695 183.309514 
L 437.805828 199.772101 
L 428.902638 213.658101 
L 420.265402 225.3803 
L 411.711449 235.395579 
L 403.147223 244.076654 
L 394.743131 251.770908 
L 385.959046 258.334823 
L 377.407293 263.968965 
L 369.245847 268.720489 
L 352.718474 277.502904 
L 344.804658 281.297022 
L 336.7545 284.643693 
L 328.861999 288.246951 
L 321.140432 291.177636 
L 313.24272 293.861734 
L 297.17684 298.479056 
L 288.677205 300.70999 
L 271.478577 303.843176 
L 263.00349 306.327658 
L 254.821704 307.916083 
L 246.503717 309.737736 
L 238.520147 311.172106 
L 231.213014 312.339635 
L 217.03486 313.486318 
L 210.427368 314.340879 
L 204.391986 314.949494 
L 198.377148 315.398478 
L 192.305806 316.700049 
L 186.338138 317.738201 
L 180.619072 318.604787 
L 174.407212 319.25622 
L 168.237161 320.285564 
L 162.096218 320.89018 
L 155.479471 321.102935 
L 142.348376 322.349574 
L 135.91268 322.999007 
L 114.629232 324.72 
L 108.213321 324.464016 
L 106.717693 324.491463 
L 105.66032 323.59161 
L 105.352472 321.11896 
L 105.712157 317.850784 
L 106.616868 312.463345 
L 108.089753 306.008756 
L 110.12514 298.557025 
L 112.468268 291.47845 
L 116.857368 279.938749 
L 126.660915 253.684927 
L 131.836449 240.142745 
L 150.011368 192.596817 
L 153.67727 183.388163 
L 154.786344 180.399145 
L 156.205085 177.174368 
L 156.702723 176.551338 
L 157.137587 175.280744 
L 157.456128 174.076143 
L 158.376254 171.443012 
L 161.292957 164.255304 
L 167.738614 150.20459 
L 169.749494 145.923156 
L 173.483639 138.969931 
L 179.108082 129.158857 
L 182.684897 123.31979 
L 183.116381 122.889019 
L 183.271473 123.172475 
L 182.858796 126.042988 
L 182.148028 129.104251 
L 180.975284 133.076617 
L 175.428136 149.706686 
L 163.838956 182.749489 
L 152.66647 213.745615 
L 146.152773 231.254836 
L 139.213658 249.150184 
L 127.485155 277.745312 
L 126.839197 279.139454 
L 126.600637 279.010398 
L 127.289205 274.690878 
L 128.955299 267.492535 
L 129.948676 263.83855 
L 132.023525 257.538791 
L 133.517471 253.419278 
L 134.544555 251.037205 
L 141.383253 231.9115 
L 147.52022 215.73228 
L 164.835915 166.816254 
L 169.267394 154.817359 
L 173.110696 144.934666 
L 178.027532 133.968445 
L 179.368775 131.040548 
L 181.655153 125.245856 
L 182.45608 123.420652 
L 184.865103 118.843254 
L 187.845748 114.03897 
L 192.136914 108.105403 
L 196.68732 102.473838 
L 199.775399 98.770061 
L 202.519682 95.936947 
L 205.367205 93.05731 
L 210.09622 88.914817 
L 210.929715 88.55566 
L 211.195713 88.501818 
L 211.352582 88.662295 
L 211.294489 89.456533 
L 210.643727 92.46079 
L 209.860591 95.455651 
L 208.839613 98.78324 
L 207.629877 102.333706 
L 206.401265 105.716113 
L 204.024877 112.781099 
L 201.095526 120.646187 
L 200.724754 121.949588 
L 198.614704 127.771474 
L 197.960292 129.625362 
L 197.586236 130.357216 
L 192.8663 142.82753 
L 180.779442 177.185192 
L 177.416938 185.966518 
L 165.283209 217.518243 
L 157.376391 237.079844 
L 154.584776 244.109659 
L 154.412383 244.081757 
L 154.461262 243.099505 
L 154.66283 241.58714 
L 155.118537 239.392325 
L 155.888036 236.459915 
L 158.173627 229.1083 
L 161.105719 220.434051 
L 164.135949 211.854588 
L 168.841175 197.771392 
L 169.048673 197.618526 
L 168.938485 198.602509 
L 167.95572 202.94136 
L 166.422951 208.185453 
L 164.358279 214.216392 
L 163.644037 215.974556 
L 163.453162 216.233238 
L 163.409331 215.87562 
L 163.444911 215.191593 
L 164.030808 212.637797 
L 165.787184 206.832042 
L 174.68408 179.889614 
L 177.018374 173.147468 
L 182.450245 158.402443 
L 190.448076 137.674321 
L 201.261908 110.498564 
L 201.784393 109.611185 
L 202.012083 109.535062 
L 201.952308 110.156022 
L 199.862016 117.458916 
L 196.321786 128.169814 
L 195.474341 130.169869 
L 195.388388 130.024696 
L 195.857557 127.897972 
L 197.843862 121.483602 
L 198.250445 120.602802 
L 198.154804 121.332846 
L 197.466712 124.137334 
L 196.37061 127.355231 
L 195.539341 129.382096 
L 195.378428 129.501678 
L 195.983065 127.459177 
L 197.686518 122.020129 
L 198.795958 118.452693 
L 202.483966 107.827273 
L 204.713485 102.385363 
L 207.943601 95.425902 
L 211.319499 89.616195 
L 211.55833 89.514522 
L 211.339297 90.834361 
L 210.831631 92.867649 
L 208.458201 100.525783 
L 204.723337 111.348946 
L 198.831485 127.80935 
L 192.97296 143.488669 
L 187.790098 159.070302 
L 182.920526 172.49754 
L 182.550446 173.119162 
L 182.829865 171.884356 
L 183.745282 168.399359 
L 187.076127 157.36472 
L 194.241169 135.723952 
L 196.687524 129.058857 
L 197.023611 128.398937 
L 197.117678 128.472779 
L 196.613024 131.068825 
L 194.691842 137.324936 
L 188.401955 156.46396 
L 180.43528 179.437364 
L 173.956472 196.724317 
L 171.211958 204.342454 
L 169.604472 207.956958 
L 169.603889 207.437587 
L 170.946516 201.712336 
L 172.236898 197.431916 
L 174.761918 189.499348 
L 184.140942 161.246634 
L 184.695099 160.189883 
L 184.716974 160.589612 
L 184.450988 162.134819 
L 184.310403 162.371498 
L 184.243924 162.291469 
L 184.330053 161.591155 
L 184.569522 160.561868 
L 185.20917 158.99343 
L 185.40489 158.896958 
L 185.412272 159.257532 
L 184.268242 163.238849 
L 179.660991 178.203239 
L 179.373959 178.816735 
L 179.314237 178.542829 
L 179.547776 177.173332 
L 180.645072 172.719508 
L 182.513549 166.228583 
L 182.370996 167.206736 
L 182.116125 167.966098 
L 183.413686 163.775011 
L 184.703363 159.646267 
L 191.613276 140.344677 
L 192.552223 137.923898 
L 192.847478 137.58143 
L 192.619082 138.643402 
L 189.735652 149.1328 
L 187.19059 156.83481 
L 186.956427 157.170408 
L 187.471068 154.760085 
L 188.776432 150.155566 
L 188.665022 150.891814 
L 187.866144 153.876498 
L 186.690089 157.790696 
L 180.641896 175.839599 
L 180.547734 175.808861 
L 180.710181 174.748182 
L 184.419872 161.961449 
L 185.420265 158.928297 
L 185.365876 159.278993 
L 184.737532 162.1344 
L 184.050348 165.156038 
L 184.744534 162.339235 
L 187.383745 153.300131 
L 190.856234 142.173871 
L 193.63645 134.593187 
L 193.638024 135.158856 
L 192.097751 141.032215 
L 188.836343 151.900133 
L 187.851801 154.715661 
L 188.116442 153.166453 
L 188.650651 151.05907 
L 187.288864 156.331459 
L 184.043279 166.575573 
L 182.126017 172.501178 
L 177.066642 186.645313 
L 177.00593 186.558186 
L 177.177807 185.498175 
L 178.540599 180.211303 
L 178.236347 181.864845 
L 177.479685 184.80968 
L 176.425176 188.337731 
L 173.803389 195.9853 
L 171.851334 201.255099 
L 176.136027 185.691347 
L 176.473376 185.666134 
L 176.048555 187.752988 
L 173.719581 195.53372 
L 172.776779 198.095929 
L 173.339296 195.293575 
L 175.580621 187.156284 
L 176.585274 184.528895 
L 176.638279 184.790572 
L 173.496599 196.562744 
L 172.771799 198.892676 
L 172.159916 200.41788 
L 172.311926 199.369956 
L 173.760779 193.608275 
L 176.415039 184.62699 
L 179.176448 176.971199 
L 177.536 183.311567 
L 176.626093 185.827886 
L 176.931146 184.368828 
L 178.891804 177.467496 
L 180.447289 172.352134 
L 185.765241 156.674626 
L 186.259405 155.583501 
L 186.321175 155.730291 
L 184.858848 161.906002 
L 184.631483 162.188341 
L 184.911581 160.758325 
L 186.479374 155.156201 
L 187.664644 151.330078 
L 189.891748 145.190184 
L 190.409035 144.218837 
L 190.356845 144.873754 
L 188.579491 151.374226 
L 187.044129 156.481563 
L 181.810027 172.541807 
L 181.435292 173.244534 
L 181.41164 172.845405 
L 182.929482 166.209827 
L 181.071074 173.994679 
L 180.107904 177.227092 
L 178.83272 180.514369 
L 179.063288 179.150696 
L 179.655386 176.577524 
L 180.955281 172.019075 
L 185.938095 156.430645 
L 188.179339 149.940404 
L 188.620798 148.809125 
L 187.752835 152.743228 
L 185.191977 162.223581 
L 184.046182 165.400438 
L 184.010113 165.281943 
L 184.253532 164.45179 
L 183.132747 168.144878 
L 169.731256 208.518893 
L 169.285266 209.50591 
L 169.304372 208.494407 
L 170.369968 203.688364 
L 170.964781 201.164608 
L 171.464264 199.69591 
L 171.431086 200.603577 
L 170.184371 205.85338 
L 167.89798 213.484712 
L 165.763708 219.492919 
L 165.257724 220.880548 
L 165.167212 220.599047 
L 165.516992 218.867997 
L 168.767924 206.421578 
L 169.223658 204.982625 
L 169.170789 205.869642 
L 165.189576 220.436153 
L 164.088562 223.179863 
L 164.193078 222.409355 
L 165.288067 217.934063 
L 166.672082 212.713722 
L 167.061581 211.32857 
L 167.083062 211.72407 
L 166.668527 213.880648 
L 164.574557 221.868896 
L 163.947679 223.262127 
L 163.643033 223.508778 
L 163.692997 222.506746 
L 164.404308 219.719045 
L 167.201976 210.235601 
L 181.029821 168.871117 
L 185.678162 155.758969 
L 191.867088 138.85381 
L 191.853749 138.8705 
L 193.157281 135.054558 
L 195.75722 128.213917 
L 198.175607 121.929327 
L 199.486304 118.584658 
L 199.730808 118.434719 
L 198.579002 123.729123 
L 197.683519 126.71467 
L 197.732466 126.087549 
L 198.177249 124.080828 
L 200.520268 116.336241 
L 203.376517 108.205364 
L 204.541798 105.309824 
L 205.351736 103.657692 
L 205.679844 103.444969 
L 205.555611 104.411208 
L 205.090161 106.396319 
L 204.231493 109.349176 
L 202.209866 115.402896 
L 201.017119 118.59519 
L 201.054477 118.252901 
L 202.882109 111.876666 
L 204.40736 107.616165 
L 204.556237 107.430401 
L 204.031499 109.477527 
L 198.567196 126.428749 
L 186.967649 159.788811 
L 184.516111 166.8223 
L 164.316972 222.797997 
L 157.363174 240.336047 
L 151.406742 254.197901 
L 146.454868 265.409347 
L 145.401024 267.394311 
L 144.641241 268.557679 
L 144.182467 268.994805 
L 143.980871 268.751186 
L 144.125012 266.752884 
L 144.366177 265.971574 
L 143.915491 267.897413 
L 143.260089 270.08455 
L 142.380537 272.433996 
L 139.955393 277.773605 
L 139.58002 278.150837 
L 139.499903 277.455869 
L 140.038712 273.220997 
L 141.322703 267.07119 
L 143.146671 261.550587 
L 147.263313 250.013757 
L 155.44248 227.316472 
L 161.167272 211.31477 
L 166.851748 195.012792 
L 171.81973 180.383135 
L 177.032907 166.111793 
L 182.957301 150.974716 
L 189.764366 134.374099 
L 197.140421 117.305195 
L 200.943665 109.048823 
L 204.396084 101.935642 
L 207.776487 95.293315 
L 210.926756 90.072737 
L 213.972022 85.625693 
L 216.842221 82.155324 
L 219.620239 79.351048 
L 222.200719 77.041829 
L 228.523812 72.293619 
L 232.395258 69.868581 
L 236.192232 67.686406 
L 248.524802 61.165405 
L 251.648488 59.851866 
L 252.341018 59.65568 
L 252.796616 59.668827 
L 253.103922 59.918189 
L 253.294621 60.331958 
L 253.343364 61.026574 
L 253.210636 62.125132 
L 252.450378 65.386604 
L 251.773657 67.517071 
L 248.347198 76.482013 
L 242.057094 92.864989 
L 234.397969 113.840217 
L 230.64184 123.392958 
L 224.901361 139.552634 
L 220.196569 152.860511 
L 215.187742 166.514526 
L 204.042477 195.550677 
L 195.069684 216.292542 
L 187.066167 233.463894 
L 183.383099 240.901164 
L 180.184629 246.806897 
L 177.620596 251.887561 
L 174.649925 257.125317 
L 173.873152 257.826657 
L 173.696159 257.528682 
L 173.970883 255.016766 
L 174.352891 252.924469 
L 176.220676 245.641568 
L 181.11903 230.878982 
L 182.412955 227.067949 
L 188.56109 210.235277 
L 206.596984 160.175481 
L 212.648053 144.490885 
L 220.405601 125.22246 
L 226.057781 111.095796 
L 228.916988 104.788306 
L 231.813703 98.738102 
L 234.556236 92.866738 
L 239.429974 82.988598 
L 239.727645 82.605084 
L 239.837303 82.648646 
L 239.797014 83.229359 
L 239.27875 85.521751 
L 238.180138 89.413587 
L 236.223958 95.316365 
L 234.066047 101.5004 
L 226.948243 120.2917 
L 219.964699 140.355878 
L 215.972222 151.197508 
L 210.66947 165.737949 
L 206.311716 177.433656 
L 199.167939 197.560315 
L 195.810211 205.550169 
L 194.442643 209.601481 
L 193.118946 213.148868 
L 191.268218 217.916554 
L 191.016536 218.651129 
L 190.822024 218.764914 
L 190.827235 218.376656 
L 191.406279 215.406438 
L 192.661407 210.434521 
L 195.300346 201.872377 
L 195.8264 200.784142 
L 195.998698 200.647449 
L 197.066167 196.90378 
L 201.082404 185.762435 
L 201.518014 184.969439 
L 202.306538 182.492539 
L 203.564665 178.046418 
L 205.309072 172.482818 
L 207.945365 165.380171 
L 208.427655 164.231027 
L 213.578709 149.869311 
L 213.673279 150.102267 
L 212.845212 153.601583 
L 211.154813 159.556511 
L 209.118639 165.440968 
L 209.102273 165.391743 
L 209.242207 164.958623 
L 201.330721 189.096309 
L 200.929281 189.884145 
L 199.560152 193.852404 
L 193.093027 212.097803 
L 192.913483 212.225122 
L 193.044691 211.444748 
L 195.855467 201.092812 
L 196.613689 199.000711 
L 196.527656 199.475536 
L 194.524144 207.277168 
L 193.218034 211.649143 
L 193.007088 212.007562 
L 193.098021 211.123016 
L 194.03534 206.910765 
L 195.460309 202.234309 
L 195.9315 201.308516 
L 196.120027 201.249555 
L 195.01573 205.70829 
L 192.184938 215.116101 
L 191.551451 216.792254 
L 191.315618 217.048674 
L 191.550365 215.546205 
L 192.216651 212.612802 
L 194.898933 203.576512 
L 199.724701 189.438542 
L 200.623468 186.932891 
L 204.320987 175.763783 
L 208.190452 164.70262 
L 214.19594 148.185378 
L 219.348079 134.744389 
L 222.571993 125.980402 
L 224.614207 119.963766 
L 225.239118 118.134735 
L 224.463187 121.964408 
L 223.066103 127.657821 
L 222.030633 131.025815 
L 222.122515 130.207547 
L 223.03036 126.087524 
L 224.779218 119.863119 
L 226.138943 115.819831 
L 226.33492 115.487484 
L 226.164251 116.414813 
L 225.009677 120.977045 
L 223.071097 128.336102 
L 223.269097 126.857891 
L 224.559588 121.340916 
L 226.126133 115.881081 
L 226.582097 114.717379 
L 226.495195 115.573382 
L 226.073535 117.602612 
L 223.802247 125.563278 
L 222.190324 130.76928 
L 219.197086 139.588561 
L 217.327171 144.901112 
L 216.377965 147.854352 
L 215.614477 149.688027 
L 213.285774 155.95586 
L 200.246779 192.759089 
L 199.958783 193.289709 
L 200.058753 192.525771 
L 201.147404 188.402982 
L 201.977127 186.240611 
L 200.938481 189.899805 
L 198.704415 196.597165 
L 196.151374 203.877621 
L 194.772597 207.620155 
L 194.663806 207.455176 
L 194.913874 206.120668 
L 195.52455 203.604613 
L 198.586085 193.320957 
L 198.889822 192.654637 
L 198.879848 193.063903 
L 197.079194 199.900836 
L 195.611737 204.391364 
L 195.250246 205.439705 
L 195.223486 205.168334 
L 195.937389 202.09595 
L 196.917277 198.289057 
L 197.566573 196.86802 
L 197.251125 198.675148 
L 194.939914 206.720591 
L 194.203133 208.79993 
L 193.932099 209.174005 
L 194.050212 208.447693 
L 195.004589 204.948489 
L 196.127708 201.500987 
L 197.773298 196.006664 
L 203.505038 178.564697 
L 208.063274 165.27931 
L 213.960297 149.208776 
L 220.904678 130.265713 
L 221.248527 129.789599 
L 221.26701 130.19872 
L 219.725148 135.771295 
L 219.5278 136.224279 
L 219.593248 135.838916 
L 220.863086 131.124783 
L 220.913037 131.191263 
L 219.629914 135.794995 
L 215.622144 148.24392 
L 213.228618 155.383473 
L 214.515906 149.958427 
L 215.494804 146.863263 
L 215.400804 147.572367 
L 213.817432 153.029431 
L 210.876398 162.239168 
L 207.139336 172.838341 
L 206.626187 174.005646 
L 206.586671 173.690457 
L 207.225166 170.59845 
L 208.287735 166.741712 
L 208.383743 166.925645 
L 208.123403 168.184747 
L 206.102494 175.290522 
L 204.551921 180.262941 
L 202.77226 185.584208 
L 197.656148 199.462816 
L 196.165663 203.20868 
L 190.431656 219.923359 
L 188.669161 224.369243 
L 188.467226 224.313464 
L 189.830602 218.909927 
L 192.266439 210.454619 
L 194.539559 203.455363 
L 195.276083 201.352705 
L 195.367518 201.49436 
L 195.193456 202.471474 
L 193.582768 208.3773 
L 193.299616 208.985536 
L 193.289561 208.648574 
L 194.130112 205.409607 
L 197.01627 196.21916 
L 199.12271 189.83262 
L 204.802084 173.800618 
L 207.214418 166.639805 
L 206.979712 168.175673 
L 207.028985 168.09058 
L 209.110944 161.361232 
L 210.339638 157.740701 
L 214.011266 148.183373 
L 213.371116 151.325511 
L 213.099662 152.009109 
L 213.048531 151.835301 
L 214.363135 147.266713 
L 215.793601 143.152993 
L 223.601792 122.994785 
L 223.752106 122.913912 
L 223.75862 123.296647 
L 223.459985 124.290718 
L 224.08681 121.838419 
L 224.987897 118.935149 
L 227.307372 112.572288 
L 228.998272 108.368008 
L 229.038969 108.72253 
L 227.805417 112.57232 
L 223.896789 125.503885 
L 221.010483 134.281566 
L 220.682334 134.950507 
L 220.708117 134.43911 
L 221.169102 132.731319 
L 221.52393 131.761733 
L 221.00595 133.433594 
L 218.641057 140.799981 
L 212.959905 156.87493 
L 209.72485 165.519496 
L 209.799444 165.00506 
L 209.756794 165.023935 
L 209.183652 166.91196 
L 199.931589 193.45974 
L 198.687561 196.576833 
L 198.554101 196.8275 
L 198.554481 196.43823 
L 198.698743 195.667939 
L 198.654084 195.811613 
L 194.318219 209.070723 
L 190.491812 219.507943 
L 189.324319 222.308746 
L 189.233699 222.113765 
L 190.178142 217.801898 
L 190.505029 216.416794 
L 190.88085 215.775947 
L 190.683922 216.919002 
L 188.863768 222.989863 
L 188.621503 223.232777 
L 189.313151 220.022359 
L 191.272235 212.969132 
L 194.915597 201.88272 
L 196.339128 197.877394 
L 196.638346 197.196906 
L 196.701501 197.431 
L 196.568963 198.091384 
L 196.652567 197.709956 
L 202.184734 181.281799 
L 209.956571 158.847986 
L 211.997916 153.243999 
L 213.632352 148.847198 
L 218.938266 134.756571 
L 221.148137 128.809171 
L 221.254932 128.833801 
L 221.21083 129.486349 
L 221.003236 130.75346 
L 220.319445 133.10932 
L 220.158695 133.457269 
L 220.41548 132.227299 
L 225.642485 116.227347 
L 224.848805 119.949757 
L 222.99459 126.852956 
L 220.929063 133.648875 
L 219.600182 137.436035 
L 219.391395 137.801653 
L 220.345717 133.339636 
L 219.921465 135.155183 
L 219.127377 138.155653 
L 216.60058 146.460044 
L 215.113677 150.902016 
L 211.21102 161.251284 
L 210.900933 161.561028 
L 210.889927 161.511519 
L 211.069268 161.09155 
L 210.717887 161.962295 
L 203.973582 181.763172 
L 200.747864 190.929181 
L 197.464554 199.308787 
L 196.516732 201.619143 
L 195.319846 205.244329 
L 194.514889 207.791257 
L 192.558275 213.341701 
L 190.66734 219.101841 
L 189.702067 221.195881 
L 189.604431 220.846986 
L 190.494879 216.874412 
L 191.123793 214.38767 
L 192.635977 209.731989 
L 192.715497 210.158215 
L 191.512763 215.333587 
L 190.631583 217.806904 
L 190.551574 217.521499 
L 191.706949 213.109857 
L 194.474356 203.939473 
L 200.051887 187.68941 
L 201.818657 182.786277 
L 203.187732 178.001049 
L 205.399705 171.371707 
L 210.773375 156.48361 
L 212.825142 151.183635 
L 213.214532 149.641697 
L 214.550279 146.272391 
L 218.311537 136.711857 
L 221.087207 129.463104 
L 224.21377 120.594242 
L 224.349511 119.736681 
L 225.084067 117.573803 
L 226.727011 113.373298 
L 229.689785 106.283634 
L 229.987836 105.866359 
L 229.558129 107.844612 
L 228.156757 112.545626 
L 225.544144 119.94661 
L 224.428475 123.001675 
L 224.137779 124.680908 
L 222.335577 130.137477 
L 214.296765 153.366985 
L 207.114177 172.81307 
L 198.696613 196.424102 
L 196.247029 202.694325 
L 194.916303 206.720658 
L 191.043079 217.673563 
L 185.059263 233.279765 
L 184.759122 233.818327 
L 184.63573 233.64478 
L 184.697813 232.566625 
L 185.165733 230.830556 
L 184.455494 233.491662 
L 182.93928 238.122912 
L 180.748963 243.276513 
L 180.689405 242.581609 
L 181.650336 238.000375 
L 183.416006 231.333242 
L 185.597353 224.412131 
L 186.117693 223.442526 
L 186.222671 223.4129 
L 188.126023 218.004735 
L 193.871713 201.094411 
L 206.037847 166.62133 
L 210.016157 155.941318 
L 215.104124 142.226036 
L 224.698314 117.588792 
L 228.518234 107.481609 
L 229.066081 106.869969 
L 229.090629 107.368783 
L 228.679514 109.420075 
L 228.636958 109.307025 
L 228.794112 108.062277 
L 229.281288 106.259687 
L 229.640716 105.877487 
L 229.498597 106.703633 
L 229.15468 108.026331 
L 227.435188 113.129073 
L 226.34693 116.122027 
L 220.921776 133.047895 
L 219.683326 135.977753 
L 218.563477 139.402516 
L 214.095576 151.733107 
L 210.103547 162.962296 
L 208.135847 168.400979 
L 204.936535 177.676427 
L 198.902863 194.283665 
L 196.733716 200.157419 
L 190.052091 218.963587 
L 188.298375 223.23943 
L 187.798131 224.256993 
L 187.732561 224.163237 
L 187.774167 223.762608 
L 188.644871 220.714687 
L 186.586468 227.664668 
L 186.371099 227.965232 
L 186.517139 226.486691 
L 187.344799 222.970678 
L 188.455325 219.274926 
L 189.375573 216.556038 
L 189.451253 216.635687 
L 189.413271 216.844151 
L 189.707305 215.689004 
L 191.951453 208.604455 
L 198.666379 188.944079 
L 201.724251 180.844622 
L 203.210787 176.197365 
L 205.135064 170.164396 
L 208.071226 162.028004 
L 211.905002 151.726582 
L 218.898289 132.958862 
L 222.074396 125.122502 
L 226.345573 113.116314 
L 229.995855 104.322791 
L 229.761298 105.846053 
L 229.035115 108.780187 
L 228.267597 111.086412 
L 227.868219 111.875365 
L 227.835013 111.676156 
L 228.11488 110.408756 
L 228.186584 110.428518 
L 228.192406 110.868643 
L 227.941117 112.071474 
L 226.625956 115.735388 
L 225.064472 120.145498 
L 224.359715 122.221597 
L 223.480598 125.673707 
L 223.187731 126.990277 
L 220.707302 133.681204 
L 213.191911 154.785743 
L 210.022833 163.325688 
L 207.666638 170.133403 
L 204.31845 179.25413 
L 199.442134 192.867925 
L 196.362116 201.270473 
L 195.168704 204.458729 
L 193.262937 210.073019 
L 189.995409 219.499937 
L 189.414451 220.996028 
L 189.036541 221.566806 
L 188.958106 221.188945 
L 189.138953 219.979003 
L 190.17403 215.863829 
L 191.29658 212.072148 
L 191.841495 210.847412 
L 191.05517 214.990327 
L 190.604877 216.233514 
L 190.990834 214.316101 
L 192.146264 209.815532 
L 194.2842 202.419689 
L 194.448573 202.03303 
L 194.47977 202.244546 
L 194.189047 204.13098 
L 194.427132 202.939063 
L 195.659069 198.855717 
L 196.638115 195.748645 
L 202.424366 179.307872 
L 204.991955 171.010659 
L 211.662235 152.603265 
L 215.495957 142.954387 
L 215.559763 143.050086 
L 215.27976 144.68286 
L 215.228764 144.538432 
L 215.321271 143.785055 
L 216.06994 141.091804 
L 217.873199 136.092713 
L 217.482276 137.967437 
L 216.366579 142.391471 
L 215.099917 146.771934 
L 214.440199 148.627459 
L 214.237342 148.953223 
L 214.268132 147.69755 
L 214.697676 145.822158 
L 214.878984 145.514689 
L 214.981248 145.713175 
L 214.715901 147.222485 
L 213.294893 152.185485 
L 210.557164 159.991436 
L 210.534109 159.814276 
L 211.419903 156.16545 
L 212.208454 153.675587 
L 212.183553 153.988253 
L 211.860398 155.525897 
L 209.967685 161.894119 
L 207.042188 170.314675 
L 202.992975 181.704748 
L 201.602623 186.548991 
L 196.136908 200.897955 
L 195.022365 203.890896 
L 194.963662 203.77898 
L 195.136543 202.888018 
L 197.381926 194.486777 
L 197.357243 194.988876 
L 196.791035 197.988875 
L 195.962995 201.500968 
L 195.643029 202.182572 
L 195.524848 201.957667 
L 196.337839 198.484314 
L 198.086113 192.57695 
L 200.923215 184.493418 
L 201.027392 184.777471 
L 200.347007 187.334441 
L 199.198634 190.473376 
L 199.997213 187.489766 
L 203.964721 174.825167 
L 205.364016 170.672777 
L 205.377681 170.945982 
L 205.253123 171.711196 
L 203.586635 178.340574 
L 203.083039 179.543277 
L 202.982906 179.269605 
L 202.983856 178.412583 
L 202.983856 178.412583 
" clip-path="url(#p7074de617d)" style="fill: none; stroke: #000000; stroke-width: 1.5; stroke-linecap: square"/>
   </g>
   <g id="line2d_34">
    <path d="M 392.865924 165.31942 
L 425.901116 72.348808 
L 359.988696 257.812485 
L 356.945372 265.777684 
L 353.2661 274.596144 
L 348.982928 282.974496 
L 344.253309 289.127756 
L 339.067896 292.615191 
L 333.844046 294.151756 
L 328.459534 294.841275 
L 323.206943 295.175046 
L 309.191493 295.627863 
L 298.913037 295.873659 
L 332.236839 202.164906 
L 342.208969 174.944557 
L 348.718377 157.852619 
L 355.1116 141.869317 
L 360.066089 130.193083 
L 363.780409 121.920339 
L 368.114621 112.846521 
L 372.084362 105.1225 
L 375.592309 98.783943 
L 378.549089 93.802118 
L 381.983786 88.428976 
L 382.883986 87.093568 
L 365.901236 135.016645 
L 378.358506 99.920381 
L 383.99638 84.433791 
L 390.134057 69.038157 
L 396.684991 56.132179 
L 403.216293 47.834446 
L 409.663448 43.224815 
L 415.844716 40.809071 
L 421.415576 39.542421 
L 426.690739 38.778678 
L 431.664878 38.282928 
L 440.165205 37.712355 
L 446.137728 37.426688 
L 430.110949 82.637569 
L 444.013874 43.501171 
L 447.747035 37.267438 
L 451.210755 36.797604 
L 482.23813 36.083931 
L 511.170653 35.430781 
L 491.545986 90.481951 
L 482.936203 113.88956 
L 474.054044 136.960893 
L 464.970974 158.955624 
L 455.652153 179.438929 
L 446.631695 197.025204 
L 437.805828 212.040795 
L 428.902638 225.071577 
L 420.265402 235.845036 
L 411.711449 244.903433 
L 403.147223 252.579256 
L 394.743131 258.955102 
L 385.959046 264.588846 
L 377.407293 269.228869 
L 369.245847 273.010215 
L 360.769917 276.380384 
L 352.718474 279.142673 
L 344.804658 281.50842 
L 336.7545 283.615657 
L 328.861999 285.433935 
L 321.140432 287.011384 
L 313.24272 288.449116 
L 305.308288 289.740547 
L 297.17684 290.927907 
L 280.368499 293.026389 
L 263.00349 294.803677 
L 246.503717 296.218769 
L 223.79245 297.846878 
L 198.377148 299.353984 
L 168.237161 300.845945 
L 135.91268 302.205991 
L 105.352472 303.337045 
L 116.857368 271.135987 
L 124.624089 250.14626 
L 128.994137 238.770198 
L 134.791149 224.271406 
L 141.468961 208.511693 
L 147.497585 195.219977 
L 152.017934 185.856948 
L 157.137587 175.880894 
L 161.292957 168.269338 
L 165.490802 161.01204 
L 169.749494 154.080201 
L 173.483639 148.346463 
L 177.887612 141.980364 
L 182.684897 135.509731 
L 183.271473 134.750411 
L 146.152773 239.280108 
L 139.213658 258.123826 
L 135.9012 266.660493 
L 132.925358 273.900301 
L 130.451281 279.508153 
L 127.485155 285.625237 
L 126.600637 287.306134 
L 138.457023 254.155047 
L 145.361209 235.545619 
L 151.863887 218.807713 
L 156.184242 208.201953 
L 160.500199 198.062848 
L 164.835915 188.362601 
L 169.267394 178.967377 
L 173.110696 171.249735 
L 178.027532 161.957713 
L 182.45608 154.137634 
L 186.284373 147.785184 
L 190.68224 140.937353 
L 195.190796 134.394452 
L 199.775399 128.210366 
L 203.945276 122.972735 
L 208.626822 117.503897 
L 211.356911 114.503937 
L 211.294489 114.680083 
L 180.779442 200.459462 
L 173.774241 219.480885 
L 168.82656 232.359158 
L 165.283209 241.157633 
L 161.692159 249.610111 
L 158.597933 256.450566 
L 154.977708 263.865122 
L 154.412383 264.961882 
L 154.66283 264.255156 
L 165.407509 234.204462 
L 169.048673 224.292298 
L 166.422951 231.701735 
L 163.409331 240.205245 
L 172.612949 214.43256 
L 179.589613 195.61112 
L 185.234478 181.16984 
L 190.448076 168.619314 
L 194.684826 159.041944 
L 199.331701 149.213556 
L 202.012083 143.871666 
L 201.952308 144.040346 
L 195.378428 162.606002 
L 202.483966 142.788919 
L 206.916259 131.032531 
L 211.008285 120.876453 
L 211.55833 119.571108 
L 211.339297 120.18919 
L 182.550446 201.106066 
L 194.241169 168.721882 
L 197.117678 161.159742 
L 195.816508 164.831474 
L 173.956472 226.230548 
L 169.603889 238.051095 
L 172.236898 230.625605 
L 181.251405 205.583668 
L 185.412272 194.312286 
L 183.30746 200.251786 
L 179.314237 211.519643 
L 191.613276 177.139669 
L 192.847478 173.795889 
L 190.842813 179.452789 
L 180.547734 208.504553 
L 192.226218 175.803058 
L 193.638024 171.949804 
L 190.911694 179.643145 
L 171.851334 233.413677 
L 184.85939 197.009543 
L 190.409035 181.532812 
L 183.881701 199.95161 
L 163.643033 257.280677 
L 188.620798 186.881985 
L 170.603331 237.710188 
L 177.089616 219.847105 
L 183.307026 203.369956 
L 189.18596 188.586886 
L 192.367549 180.732875 
L 201.971116 153.915132 
L 205.679844 143.712651 
L 201.017119 156.870215 
L 202.763819 151.972164 
L 180.92483 213.347134 
L 174.007169 232.108666 
L 169.66764 243.319321 
L 166.019298 252.232622 
L 161.712514 261.971928 
L 159.004978 267.584419 
L 155.478739 274.239914 
L 153.497061 277.641725 
L 151.406742 280.963313 
L 147.869076 285.971438 
L 144.641241 289.899596 
L 143.980871 290.632165 
L 144.001145 290.574956 
L 139.499903 303.058326 
L 153.002598 265.323935 
L 158.244924 251.139508 
L 164.087205 235.84633 
L 169.529498 222.194032 
L 174.585793 210.093918 
L 179.958811 197.903487 
L 186.264439 184.516933 
L 189.764366 177.52334 
L 193.441965 170.510384 
L 197.140421 163.800869 
L 200.943665 157.253532 
L 204.396084 151.611781 
L 207.776487 146.357652 
L 210.926756 141.693967 
L 216.842221 133.516161 
L 222.200719 126.723579 
L 226.607297 121.546056 
L 230.603912 117.148451 
L 234.356879 113.261779 
L 239.80194 108.012915 
L 244.810238 103.562736 
L 249.686581 99.549063 
L 253.343364 96.730571 
L 232.077693 156.482253 
L 224.901361 176.097283 
L 220.196569 188.560838 
L 215.187742 201.334625 
L 209.656023 214.682495 
L 207.033517 220.683419 
L 204.042477 227.243236 
L 201.140511 233.300977 
L 198.013894 239.474648 
L 195.069684 244.944399 
L 192.184965 249.976574 
L 189.3729 254.57121 
L 185.024374 261.083292 
L 180.987795 266.507496 
L 177.620596 270.599918 
L 174.181163 274.399884 
L 173.696159 274.906329 
L 188.56109 233.1555 
L 194.293875 217.510165 
L 200.494146 201.238422 
L 206.596984 186.08212 
L 212.648053 172.042828 
L 218.080386 160.350807 
L 222.522829 151.451845 
L 226.057781 144.797647 
L 229.982584 137.846586 
L 233.994751 131.204056 
L 237.957306 125.086731 
L 239.837303 122.332813 
L 239.797014 122.446504 
L 218.631096 181.842822 
L 211.976638 199.860531 
L 206.311716 214.520928 
L 201.69992 225.79767 
L 197.095003 236.319912 
L 193.118946 244.725477 
L 190.822024 249.272205 
L 191.016441 248.723587 
L 202.306538 217.167052 
L 213.673279 185.835337 
L 207.979154 201.902226 
L 194.656641 239.171621 
L 192.913483 243.877785 
L 195.081992 237.760439 
L 191.315618 248.39173 
L 202.649302 216.702415 
L 208.190452 201.753753 
L 214.19594 186.263944 
L 217.724853 177.585968 
L 222.571993 166.246012 
L 225.239118 160.310386 
L 224.954786 161.112732 
L 226.582097 156.580756 
L 208.992953 205.938906 
L 202.554082 223.297965 
L 199.958783 230.015342 
L 201.147404 226.661546 
L 193.932099 246.994706 
L 205.098371 215.765201 
L 212.006804 196.541637 
L 219.055239 177.086534 
L 221.26701 171.169175 
L 219.629914 175.789887 
L 195.529774 243.492957 
L 191.705674 253.707211 
L 188.467226 261.879836 
L 188.986251 260.415236 
L 203.24022 220.442275 
L 214.011266 190.497072 
L 213.543685 191.816556 
L 222.078535 168.0006 
L 227.307372 153.458186 
L 229.038969 148.63545 
L 218.641057 177.968861 
L 189.682716 259.340158 
L 188.621503 262.297197 
L 192.536482 251.259285 
L 208.248274 207.347285 
L 213.632352 192.898495 
L 218.938266 179.283857 
L 221.254932 173.572064 
L 220.655587 175.263337 
L 225.642485 161.263634 
L 196.981992 241.753784 
L 192.558275 253.432888 
L 189.604431 260.758283 
L 189.939853 259.81177 
L 202.472865 224.756404 
L 208.306109 209.020163 
L 213.685288 195.091295 
L 218.311537 183.664265 
L 223.0269 172.613146 
L 227.636702 162.43557 
L 229.987836 157.491851 
L 229.890471 157.766601 
L 213.101738 204.872104 
L 207.114177 221.041502 
L 202.240181 233.540708 
L 197.85792 244.044334 
L 194.916303 250.616765 
L 192.522057 255.649445 
L 189.43353 261.695393 
L 185.723133 268.272168 
L 184.63573 270.056847 
L 184.697813 269.881658 
L 180.689405 281.141336 
L 193.871713 244.286595 
L 201.416212 224.0114 
L 207.092573 209.435011 
L 211.819552 197.84204 
L 216.642104 186.585363 
L 221.578549 175.700587 
L 225.925311 166.669754 
L 229.090629 160.42392 
L 228.95645 160.802558 
L 229.640716 158.872121 
L 212.070108 208.121842 
L 206.299856 223.613766 
L 201.443596 235.956165 
L 197.898685 244.406929 
L 194.063416 252.903615 
L 191.297679 258.566834 
L 187.732561 265.256785 
L 186.371099 269.097071 
L 200.854252 228.497007 
L 206.467988 213.285239 
L 211.905002 199.104083 
L 217.473767 185.288699 
L 222.517876 173.488118 
L 226.345573 165.022267 
L 229.995855 157.3569 
L 229.939174 157.516849 
L 211.185685 210.12632 
L 206.048337 223.968093 
L 200.950599 237.006667 
L 197.116959 246.166315 
L 193.931529 253.25935 
L 190.757987 259.802352 
L 188.958106 263.267492 
L 189.138953 262.757167 
L 205.90421 215.779346 
L 211.662235 200.285844 
L 217.59165 184.449273 
L 217.873199 183.656611 
L 194.963662 248.184147 
L 202.983856 225.636026 
" clip-path="url(#p7074de617d)" style="fill: none; stroke-dasharray: 5.55,2.4; stroke-dashoffset: 0; stroke: #ff0000; stroke-width: 1.5"/>
   </g>
   <g id="patch_3">
    <path d="M 85.061562 339.84 
L 85.061562 7.2 
" style="fill: none; stroke: #000000; stroke-width: 0.8; stroke-linejoin: miter; stroke-linecap: square"/>
   </g>
   <g id="patch_4">
    <path d="M 531.461563 339.84 
L 531.461563 7.2 
" style="fill: none; stroke: #000000; stroke-width: 0.8; stroke-linejoin: miter; stroke-linecap: square"/>
   </g>
   <g id="patch_5">
    <path d="M 85.061562 339.84 
L 531.461563 339.84 
" style="fill: none; stroke: #000000; stroke-width: 0.8; stroke-linejoin: miter; stroke-linecap: square"/>
   </g>
   <g id="patch_6">
    <path d="M 85.061562 7.2 
L 531.461563 7.2 
" style="fill: none; stroke: #000000; stroke-width: 0.8; stroke-linejoin: miter; stroke-linecap: square"/>
   </g>
   <g id="legend_1">
    <g id="patch_7">
     <path d="M 92.761562 48.291875 
L 201.316094 48.291875 
Q 203.516094 48.291875 203.516094 46.091875 
L 203.516094 14.9 
Q 203.516094 12.7 201.316094 12.7 
L 92.761562 12.7 
Q 90.561562 12.7 90.561562 14.9 
L 90.561562 46.091875 
Q 90.561562 48.291875 92.761562 48.291875 
z
" style="fill: #ffffff; opacity: 0.8; stroke: #cccccc; stroke-linejoin: miter"/>
    </g>
    <g id="line2d_35">
     <path d="M 94.961562 21.608281 
L 105.961562 21.608281 
L 116.961562 21.608281 
" style="fill: none; stroke: #000000; stroke-width: 1.5; stroke-linecap: square"/>
    </g>
    <g id="text_19">
     <!-- Experimental -->
     <g transform="translate(125.761562 25.458281) scale(0.11 -0.11)">
      <defs>
       <path id="DejaVuSans-45" d="M 628 4666 
L 3578 4666 
L 3578 4134 
L 1259 4134 
L 1259 2753 
L 3481 2753 
L 3481 2222 
L 1259 2222 
L 1259 531 
L 3634 531 
L 3634 0 
L 628 0 
L 628 4666 
z
" transform="scale(0.015625)"/>
       <path id="DejaVuSans-78" d="M 3513 3500 
L 2247 1797 
L 3578 0 
L 2900 0 
L 1881 1375 
L 863 0 
L 184 0 
L 1544 1831 
L 300 3500 
L 978 3500 
L 1906 2253 
L 2834 3500 
L 3513 3500 
z
" transform="scale(0.015625)"/>
      </defs>
      <use xlink:href="#DejaVuSans-45"/>
      <use xlink:href="#DejaVuSans-78" x="63.183594"/>
      <use xlink:href="#DejaVuSans-70" x="122.363281"/>
      <use xlink:href="#DejaVuSans-65" x="185.839844"/>
      <use xlink:href="#DejaVuSans-72" x="247.363281"/>
      <use xlink:href="#DejaVuSans-69" x="288.476562"/>
      <use xlink:href="#DejaVuSans-6d" x="316.259766"/>
      <use xlink:href="#DejaVuSans-65" x="413.671875"/>
      <use xlink:href="#DejaVuSans-6e" x="475.195312"/>
      <use xlink:href="#DejaVuSans-74" x="538.574219"/>
      <use xlink:href="#DejaVuSans-61" x="577.783203"/>
      <use xlink:href="#DejaVuSans-6c" x="639.0625"/>
     </g>
    </g>
    <g id="line2d_36">
     <path d="M 94.961562 37.754219 
L 105.961562 37.754219 
L 116.961562 37.754219 
" style="fill: none; stroke-dasharray: 5.55,2.4; stroke-dashoffset: 0; stroke: #ff0000; stroke-width: 1.5"/>
    </g>
    <g id="text_20">
     <!-- Steel02 -->
     <g transform="translate(125.761562 41.604219) scale(0.11 -0.11)">
      <defs>
       <path id="DejaVuSans-53" d="M 3425 4513 
L 3425 3897 
Q 3066 4069 2747 4153 
Q 2428 4238 2131 4238 
Q 1616 4238 1336 4038 
Q 1056 3838 1056 3469 
Q 1056 3159 1242 3001 
Q 1428 2844 1947 2747 
L 2328 2669 
Q 3034 2534 3370 2195 
Q 3706 1856 3706 1288 
Q 3706 609 3251 259 
Q 2797 -91 1919 -91 
Q 1588 -91 1214 -16 
Q 841 59 441 206 
L 441 856 
Q 825 641 1194 531 
Q 1563 422 1919 422 
Q 2459 422 2753 634 
Q 3047 847 3047 1241 
Q 3047 1584 2836 1778 
Q 2625 1972 2144 2069 
L 1759 2144 
Q 1053 2284 737 2584 
Q 422 2884 422 3419 
Q 422 4038 858 4394 
Q 1294 4750 2059 4750 
Q 2388 4750 2728 4690 
Q 3069 4631 3425 4513 
z
" transform="scale(0.015625)"/>
      </defs>
      <use xlink:href="#DejaVuSans-53"/>
      <use xlink:href="#DejaVuSans-74" x="63.476562"/>
      <use xlink:href="#DejaVuSans-65" x="102.685547"/>
      <use xlink:href="#DejaVuSans-65" x="164.208984"/>
      <use xlink:href="#DejaVuSans-6c" x="225.732422"/>
      <use xlink:href="#DejaVuSans-30" x="253.515625"/>
      <use xlink:href="#DejaVuSans-32" x="317.138672"/>
     </g>
    </g>
   </g>
  </g>
 </g>
 <defs>
  <clipPath id="p7074de617d">
   <rect x="85.061562" y="7.2" width="446.4" height="332.64"/>
  </clipPath>
 </defs>
</svg>
